<?xml version="1.0" encoding="us-ascii" standalone="no"?><svg xmlns="http://www.w3.org/2000/svg" xmlns:xlink="http://www.w3.org/1999/xlink" contentStyleType="text/css" height="581px" preserveAspectRatio="none" style="width:853px;height:581px;background:#FFFFFF;" version="1.1" viewBox="0 0 853 581" width="853px" zoomAndPan="magnify"><defs/><g><line style="stroke:#181818;stroke-width:0.5;stroke-dasharray:5.0,5.0;" x1="23" x2="23" y1="84.0679" y2="497.5401"/><line style="stroke:#181818;stroke-width:0.5;stroke-dasharray:5.0,5.0;" x1="242" x2="242" y1="84.0679" y2="497.5401"/><line style="stroke:#181818;stroke-width:0.5;stroke-dasharray:5.0,5.0;" x1="391" x2="391" y1="84.0679" y2="497.5401"/><line style="stroke:#181818;stroke-width:0.5;stroke-dasharray:5.0,5.0;" x1="520" x2="520" y1="84.0679" y2="497.5401"/><line style="stroke:#181818;stroke-width:0.5;stroke-dasharray:5.0,5.0;" x1="644" x2="644" y1="84.0679" y2="497.5401"/><line style="stroke:#181818;stroke-width:0.5;stroke-dasharray:5.0,5.0;" x1="794.5" x2="794.5" y1="84.0679" y2="497.5401"/><text fill="#000000" font-family="sans-serif" font-size="14" lengthAdjust="spacing" textLength="31" x="5" y="79.9659">User</text><ellipse cx="23.5" cy="13.5" fill="#E2E2F0" rx="8" ry="8" style="stroke:#181818;stroke-width:0.5;"/><path d="M23.5,21.5 L23.5,48.5 M10.5,29.5 L36.5,29.5 M23.5,48.5 L10.5,63.5 M23.5,48.5 L36.5,63.5 " fill="none" style="stroke:#181818;stroke-width:0.5;"/><text fill="#000000" font-family="sans-serif" font-size="14" lengthAdjust="spacing" textLength="31" x="5" y="511.5061">User</text><ellipse cx="23.5" cy="524.108" fill="#E2E2F0" rx="8" ry="8" style="stroke:#181818;stroke-width:0.5;"/><path d="M23.5,532.108 L23.5,559.108 M10.5,540.108 L36.5,540.108 M23.5,559.108 L10.5,574.108 M23.5,559.108 L36.5,574.108 " fill="none" style="stroke:#181818;stroke-width:0.5;"/><rect fill="#E2E2F0" height="33.0679" rx="2.5" ry="2.5" style="stroke:#181818;stroke-width:0.5;" width="107" x="189" y="50"/><text fill="#000000" font-family="sans-serif" font-size="14" lengthAdjust="spacing" textLength="93" x="196" y="71.9659">Browser (URL)</text><rect fill="#E2E2F0" height="33.0679" rx="2.5" ry="2.5" style="stroke:#181818;stroke-width:0.5;" width="107" x="189" y="496.5401"/><text fill="#000000" font-family="sans-serif" font-size="14" lengthAdjust="spacing" textLength="93" x="196" y="518.5061">Browser (URL)</text><rect fill="#E2E2F0" height="33.0679" rx="2.5" ry="2.5" style="stroke:#181818;stroke-width:0.5;" width="111" x="336" y="50"/><text fill="#000000" font-family="sans-serif" font-size="14" lengthAdjust="spacing" textLength="97" x="343" y="71.9659">PageInitializer</text><rect fill="#E2E2F0" height="33.0679" rx="2.5" ry="2.5" style="stroke:#181818;stroke-width:0.5;" width="111" x="336" y="496.5401"/><text fill="#000000" font-family="sans-serif" font-size="14" lengthAdjust="spacing" textLength="97" x="343" y="518.5061">PageInitializer</text><rect fill="#E2E2F0" height="33.0679" rx="2.5" ry="2.5" style="stroke:#181818;stroke-width:0.5;" width="91" x="475" y="50"/><text fill="#000000" font-family="sans-serif" font-size="14" lengthAdjust="spacing" textLength="77" x="482" y="71.9659">UrlGateway</text><rect fill="#E2E2F0" height="33.0679" rx="2.5" ry="2.5" style="stroke:#181818;stroke-width:0.5;" width="91" x="475" y="496.5401"/><text fill="#000000" font-family="sans-serif" font-size="14" lengthAdjust="spacing" textLength="77" x="482" y="518.5061">UrlGateway</text><rect fill="#E2E2F0" height="33.0679" rx="2.5" ry="2.5" style="stroke:#181818;stroke-width:0.5;" width="137" x="576" y="50"/><text fill="#000000" font-family="sans-serif" font-size="14" lengthAdjust="spacing" textLength="123" x="583" y="71.9659">ProposalPresenter</text><rect fill="#E2E2F0" height="33.0679" rx="2.5" ry="2.5" style="stroke:#181818;stroke-width:0.5;" width="137" x="576" y="496.5401"/><text fill="#000000" font-family="sans-serif" font-size="14" lengthAdjust="spacing" textLength="123" x="583" y="518.5061">ProposalPresenter</text><rect fill="#E2E2F0" height="33.0679" rx="2.5" ry="2.5" style="stroke:#181818;stroke-width:0.5;" width="106" x="741.5" y="50"/><text fill="#000000" font-family="sans-serif" font-size="14" lengthAdjust="spacing" textLength="92" x="748.5" y="71.9659">ViewManager</text><rect fill="#E2E2F0" height="33.0679" rx="2.5" ry="2.5" style="stroke:#181818;stroke-width:0.5;" width="106" x="741.5" y="496.5401"/><text fill="#000000" font-family="sans-serif" font-size="14" lengthAdjust="spacing" textLength="92" x="748.5" y="518.5061">ViewManager</text><polygon fill="#181818" points="230.5,113.7739,240.5,117.7739,230.5,121.7739,234.5,117.7739" style="stroke:#181818;stroke-width:1.0;"/><line style="stroke:#181818;stroke-width:1.0;" x1="23.5" x2="236.5" y1="117.7739" y2="117.7739"/><text fill="#000000" font-family="sans-serif" font-size="13" lengthAdjust="spacing" textLength="195" x="30.5" y="111.9649">Visits ?name=Sarah&amp;type=marry</text><polygon fill="#181818" points="379.5,145.4799,389.5,149.4799,379.5,153.4799,383.5,149.4799" style="stroke:#181818;stroke-width:1.0;"/><line style="stroke:#181818;stroke-width:1.0;" x1="242.5" x2="385.5" y1="149.4799" y2="149.4799"/><text fill="#000000" font-family="sans-serif" font-size="13" lengthAdjust="spacing" textLength="125" x="249.5" y="143.6709">DOMContentLoaded</text><polygon fill="#181818" points="508.5,177.186,518.5,181.186,508.5,185.186,512.5,181.186" style="stroke:#181818;stroke-width:1.0;"/><line style="stroke:#181818;stroke-width:1.0;" x1="391.5" x2="514.5" y1="181.186" y2="181.186"/><text fill="#000000" font-family="sans-serif" font-size="13" lengthAdjust="spacing" textLength="73" x="398.5" y="175.377">getParams()</text><polygon fill="#181818" points="253.5,208.892,243.5,212.892,253.5,216.892,249.5,212.892" style="stroke:#181818;stroke-width:1.0;"/><line style="stroke:#181818;stroke-width:1.0;" x1="247.5" x2="519.5" y1="212.892" y2="212.892"/><text fill="#000000" font-family="sans-serif" font-size="13" lengthAdjust="spacing" textLength="124" x="259.5" y="207.083">Parse Search Params</text><polygon fill="#181818" points="402.5,240.598,392.5,244.598,402.5,248.598,398.5,244.598" style="stroke:#181818;stroke-width:1.0;"/><line style="stroke:#181818;stroke-width:1.0;stroke-dasharray:2.0,2.0;" x1="396.5" x2="519.5" y1="244.598" y2="244.598"/><text fill="#000000" font-family="sans-serif" font-size="13" lengthAdjust="spacing" textLength="105" x="408.5" y="238.789">{name, type, raw}</text><polygon fill="#181818" points="782.5,272.304,792.5,276.304,782.5,280.304,786.5,276.304" style="stroke:#181818;stroke-width:1.0;"/><line style="stroke:#181818;stroke-width:1.0;" x1="391.5" x2="788.5" y1="276.304" y2="276.304"/><text fill="#000000" font-family="sans-serif" font-size="13" lengthAdjust="spacing" textLength="109" x="398.5" y="270.495">applyTheme(type)</text><polygon fill="#181818" points="655.5,304.01,645.5,308.01,655.5,312.01,651.5,308.01" style="stroke:#181818;stroke-width:1.0;"/><line style="stroke:#181818;stroke-width:1.0;" x1="649.5" x2="793.5" y1="308.01" y2="308.01"/><text fill="#000000" font-family="sans-serif" font-size="13" lengthAdjust="spacing" textLength="126" x="661.5" y="302.201">getThemeClass(type)</text><polygon fill="#181818" points="782.5,335.716,792.5,339.716,782.5,343.716,786.5,339.716" style="stroke:#181818;stroke-width:1.0;"/><line style="stroke:#181818;stroke-width:1.0;stroke-dasharray:2.0,2.0;" x1="644.5" x2="788.5" y1="339.716" y2="339.716"/><text fill="#000000" font-family="sans-serif" font-size="13" lengthAdjust="spacing" textLength="89" x="651.5" y="333.907">"theme-marry"</text><polygon fill="#181818" points="253.5,367.4221,243.5,371.4221,253.5,375.4221,249.5,371.4221" style="stroke:#181818;stroke-width:1.0;"/><line style="stroke:#181818;stroke-width:1.0;" x1="247.5" x2="793.5" y1="371.4221" y2="371.4221"/><text fill="#000000" font-family="sans-serif" font-size="13" lengthAdjust="spacing" textLength="110" x="259.5" y="365.6131">Update body class</text><polygon fill="#181818" points="782.5,399.1281,792.5,403.1281,782.5,407.1281,786.5,403.1281" style="stroke:#181818;stroke-width:1.0;"/><line style="stroke:#181818;stroke-width:1.0;" x1="391.5" x2="788.5" y1="403.1281" y2="403.1281"/><text fill="#000000" font-family="sans-serif" font-size="13" lengthAdjust="spacing" textLength="170" x="398.5" y="397.3191">preserveParamsInLinks(raw)</text><polygon fill="#181818" points="253.5,430.8341,243.5,434.8341,253.5,438.8341,249.5,434.8341" style="stroke:#181818;stroke-width:1.0;"/><line style="stroke:#181818;stroke-width:1.0;" x1="247.5" x2="793.5" y1="434.8341" y2="434.8341"/><text fill="#000000" font-family="sans-serif" font-size="13" lengthAdjust="spacing" textLength="125" x="259.5" y="429.0251">Update &lt;a&gt; tags href</text><line style="stroke:#181818;stroke-width:1.0;stroke-dasharray:2.0,2.0;" x1="391.5" x2="433.5" y1="466.5401" y2="466.5401"/><line style="stroke:#181818;stroke-width:1.0;stroke-dasharray:2.0,2.0;" x1="433.5" x2="433.5" y1="466.5401" y2="479.5401"/><line style="stroke:#181818;stroke-width:1.0;stroke-dasharray:2.0,2.0;" x1="392.5" x2="433.5" y1="479.5401" y2="479.5401"/><polygon fill="#181818" points="402.5,475.5401,392.5,479.5401,402.5,483.5401,398.5,479.5401" style="stroke:#181818;stroke-width:1.0;"/><text fill="#000000" font-family="sans-serif" font-size="13" lengthAdjust="spacing" textLength="86" x="398.5" y="460.7311">return params</text><!--SRC=[RPBHQiCm34NV_HKY3oE1zWV6si4w68MKbNRPkvQeYMbY6yjRoCR-VNQI9RJqpP8EL_SAyragWnORu0eBtKfLmWbh9Y4mTzf2b37P290XF8HddSobGUKWUhAwzKs8iqEQ3CmXlKJsMD9MIIUnbj-ZKAWlgSpMB-YenQu7nlULajL6CzPxIqpAZLfJTGc_IsftgFpo0Gkr4241BDV19Tpx7al7yAYmeTNHtw2wSvsXLOFMTY8m7WrUFVlykjjelqQvL6D1XUZxVZvQzKX9RXyEoN4Y_hlJBZzXWYEXpIiOi1cQr_m4Bmi8DXPWiVsTzeG07a1ZwkwjeeRY02MYx_lvT8V1IOziQcGUkNc-dDKY5x1b7pYQf0R7cIcyF_ZGHGTv4BgsOeAY_Q8XpLQbKfqvzgQJsqeFk0Q79KDbwJIApSajkK-heF-A_0S0]--></g></svg>