<?xml version="1.0" encoding="us-ascii" standalone="no"?><svg xmlns="http://www.w3.org/2000/svg" xmlns:xlink="http://www.w3.org/1999/xlink" contentStyleType="text/css" height="352px" preserveAspectRatio="none" style="width:752px;height:352px;background:#FFFFFF;" version="1.1" viewBox="0 0 752 352" width="752px" zoomAndPan="magnify"><defs/><g><!--cluster Layer 3: Frameworks & Drivers--><g id="cluster_Layer 3: Frameworks &amp; Drivers"><rect fill="#FFE6E6" height="103.06" rx="2.5" ry="2.5" style="stroke:#181818;stroke-width:1.0;" width="644" x="62" y="7"/><text fill="#000000" font-family="sans-serif" font-size="14" font-weight="bold" lengthAdjust="spacing" textLength="213" x="277.5" y="23.9659">Layer 3: Frameworks &amp; Drivers</text></g><!--cluster Layer 2: Interface Adapters--><g id="cluster_Layer 2: Interface Adapters"><rect fill="#FFFDE7" height="212.14" rx="2.5" ry="2.5" style="stroke:#181818;stroke-width:1.0;" width="368" x="7" y="134.06"/><text fill="#000000" font-family="sans-serif" font-size="14" font-weight="bold" lengthAdjust="spacing" textLength="187" x="97.5" y="151.0259">Layer 2: Interface Adapters</text></g><!--cluster Layer 1: Domain--><g id="cluster_Layer 1: Domain"><rect fill="#E6F3FF" height="103.07" rx="2.5" ry="2.5" style="stroke:#181818;stroke-width:1.0;" width="347" x="399" y="134.06"/><text fill="#000000" font-family="sans-serif" font-size="14" font-weight="bold" lengthAdjust="spacing" textLength="112" x="516.5" y="151.0259">Layer 1: Domain</text></g><!--entity ViewManager--><g id="elem_ViewManager"><rect fill="#F1F1F1" height="49.0679" rx="2.5" ry="2.5" style="stroke:#181818;stroke-width:0.5;" width="132" x="78" y="45"/><rect fill="#F1F1F1" height="10" style="stroke:#181818;stroke-width:0.5;" width="15" x="190" y="50"/><rect fill="#F1F1F1" height="2" style="stroke:#181818;stroke-width:0.5;" width="4" x="188" y="52"/><rect fill="#F1F1F1" height="2" style="stroke:#181818;stroke-width:0.5;" width="4" x="188" y="56"/><text fill="#000000" font-family="sans-serif" font-size="14" lengthAdjust="spacing" textLength="92" x="93" y="79.9659">ViewManager</text></g><!--entity main.js / celebration.js--><g id="elem_main.js / celebration.js"><rect fill="#F1F1F1" height="49.0679" rx="2.5" ry="2.5" style="stroke:#181818;stroke-width:0.5;" width="193" x="245.5" y="45"/><rect fill="#F1F1F1" height="10" style="stroke:#181818;stroke-width:0.5;" width="15" x="418.5" y="50"/><rect fill="#F1F1F1" height="2" style="stroke:#181818;stroke-width:0.5;" width="4" x="416.5" y="52"/><rect fill="#F1F1F1" height="2" style="stroke:#181818;stroke-width:0.5;" width="4" x="416.5" y="56"/><text fill="#000000" font-family="sans-serif" font-size="14" lengthAdjust="spacing" textLength="153" x="260.5" y="79.9659">main.js / celebration.js</text></g><!--entity index.html / CSS Variables--><g id="elem_index.html / CSS Variables"><rect fill="#F1F1F1" height="49.0679" rx="2.5" ry="2.5" style="stroke:#181818;stroke-width:0.5;" width="216" x="474" y="45"/><rect fill="#F1F1F1" height="10" style="stroke:#181818;stroke-width:0.5;" width="15" x="670" y="50"/><rect fill="#F1F1F1" height="2" style="stroke:#181818;stroke-width:0.5;" width="4" x="668" y="52"/><rect fill="#F1F1F1" height="2" style="stroke:#181818;stroke-width:0.5;" width="4" x="668" y="56"/><text fill="#000000" font-family="sans-serif" font-size="14" lengthAdjust="spacing" textLength="176" x="489" y="79.9659">index.html / CSS Variables</text></g><!--entity UrlGateway--><g id="elem_UrlGateway"><rect fill="#F1F1F1" height="49.0679" rx="2.5" ry="2.5" style="stroke:#181818;stroke-width:0.5;" width="117" x="231.5" y="281.13"/><rect fill="#F1F1F1" height="10" style="stroke:#181818;stroke-width:0.5;" width="15" x="328.5" y="286.13"/><rect fill="#F1F1F1" height="2" style="stroke:#181818;stroke-width:0.5;" width="4" x="326.5" y="288.13"/><rect fill="#F1F1F1" height="2" style="stroke:#181818;stroke-width:0.5;" width="4" x="326.5" y="292.13"/><text fill="#000000" font-family="sans-serif" font-size="14" lengthAdjust="spacing" textLength="77" x="246.5" y="316.0959">UrlGateway</text></g><!--entity ProposalPresenter--><g id="elem_ProposalPresenter"><rect fill="#F1F1F1" height="49.0679" rx="2.5" ry="2.5" style="stroke:#181818;stroke-width:0.5;" width="163" x="23.5" y="172.06"/><rect fill="#F1F1F1" height="10" style="stroke:#181818;stroke-width:0.5;" width="15" x="166.5" y="177.06"/><rect fill="#F1F1F1" height="2" style="stroke:#181818;stroke-width:0.5;" width="4" x="164.5" y="179.06"/><rect fill="#F1F1F1" height="2" style="stroke:#181818;stroke-width:0.5;" width="4" x="164.5" y="183.06"/><text fill="#000000" font-family="sans-serif" font-size="14" lengthAdjust="spacing" textLength="123" x="38.5" y="207.0259">ProposalPresenter</text></g><!--entity PageInitializer--><g id="elem_PageInitializer"><rect fill="#F1F1F1" height="49.0679" rx="2.5" ry="2.5" style="stroke:#181818;stroke-width:0.5;" width="137" x="221.5" y="172.06"/><rect fill="#F1F1F1" height="10" style="stroke:#181818;stroke-width:0.5;" width="15" x="338.5" y="177.06"/><rect fill="#F1F1F1" height="2" style="stroke:#181818;stroke-width:0.5;" width="4" x="336.5" y="179.06"/><rect fill="#F1F1F1" height="2" style="stroke:#181818;stroke-width:0.5;" width="4" x="336.5" y="183.06"/><text fill="#000000" font-family="sans-serif" font-size="14" lengthAdjust="spacing" textLength="97" x="236.5" y="207.0259">PageInitializer</text></g><!--entity THEMES / PARAMS--><g id="elem_THEMES / PARAMS"><rect fill="#F1F1F1" height="49.0679" rx="2.5" ry="2.5" style="stroke:#181818;stroke-width:0.5;" width="164" x="415" y="172.06"/><rect fill="#F1F1F1" height="10" style="stroke:#181818;stroke-width:0.5;" width="15" x="559" y="177.06"/><rect fill="#F1F1F1" height="2" style="stroke:#181818;stroke-width:0.5;" width="4" x="557" y="179.06"/><rect fill="#F1F1F1" height="2" style="stroke:#181818;stroke-width:0.5;" width="4" x="557" y="183.06"/><text fill="#000000" font-family="sans-serif" font-size="14" lengthAdjust="spacing" textLength="124" x="430" y="207.0259">THEMES / PARAMS</text></g><!--entity GameRules--><g id="elem_GameRules"><rect fill="#F1F1F1" height="49.0679" rx="2.5" ry="2.5" style="stroke:#181818;stroke-width:0.5;" width="116" x="614" y="172.06"/><rect fill="#F1F1F1" height="10" style="stroke:#181818;stroke-width:0.5;" width="15" x="710" y="177.06"/><rect fill="#F1F1F1" height="2" style="stroke:#181818;stroke-width:0.5;" width="4" x="708" y="179.06"/><rect fill="#F1F1F1" height="2" style="stroke:#181818;stroke-width:0.5;" width="4" x="708" y="183.06"/><text fill="#000000" font-family="sans-serif" font-size="14" lengthAdjust="spacing" textLength="76" x="629" y="207.0259">GameRules</text></g><!--entity THEMES--><g id="elem_THEMES"><rect fill="#F1F1F1" height="49.0679" rx="2.5" ry="2.5" style="stroke:#181818;stroke-width:0.5;" width="95" x="390.5" y="281.13"/><rect fill="#F1F1F1" height="10" style="stroke:#181818;stroke-width:0.5;" width="15" x="465.5" y="286.13"/><rect fill="#F1F1F1" height="2" style="stroke:#181818;stroke-width:0.5;" width="4" x="463.5" y="288.13"/><rect fill="#F1F1F1" height="2" style="stroke:#181818;stroke-width:0.5;" width="4" x="463.5" y="292.13"/><text fill="#000000" font-family="sans-serif" font-size="14" lengthAdjust="spacing" textLength="55" x="405.5" y="316.0959">THEMES</text></g><!--link main.js / celebration.js to PageInitializer--><g id="link_main.js / celebration.js_PageInitializer"><path d="M332.1,94.35 C322.84,116.6 311.4129,144.0995 302.1729,166.3295 " fill="none" id="main.js / celebration.js-to-PageInitializer" style="stroke:#181818;stroke-width:1.0;"/><polygon fill="#181818" points="299.87,171.87,307.018,165.0946,301.7891,167.253,299.6307,162.024,299.87,171.87" style="stroke:#181818;stroke-width:1.0;"/></g><!--link main.js / celebration.js to GameRules--><g id="link_main.js / celebration.js_GameRules"><path d="M389.78,94.49 C410.01,103.51 434.15,112.85 457,118.06 C487.38,125 568.33,113.86 597,126.06 C619.87,135.8 636.2621,151.1186 649.9521,167.1386 " fill="none" id="main.js / celebration.js-to-GameRules" style="stroke:#181818;stroke-width:1.0;"/><polygon fill="#181818" points="653.85,171.7,651.044,162.2593,650.6017,167.8989,644.9622,167.4566,653.85,171.7" style="stroke:#181818;stroke-width:1.0;"/></g><!--link PageInitializer to UrlGateway--><g id="link_PageInitializer_UrlGateway"><path d="M290,221.63 C290,239.26 290,257.1 290,274.72 " fill="none" id="PageInitializer-to-UrlGateway" style="stroke:#181818;stroke-width:1.0;"/><polygon fill="#181818" points="290,280.72,294,271.72,290,275.72,286,271.72,290,280.72" style="stroke:#181818;stroke-width:1.0;"/></g><!--link PageInitializer to ViewManager--><g id="link_PageInitializer_ViewManager"><path d="M262.3,171.87 C236.35,149.64 202.3364,120.5037 176.3664,98.2537 " fill="none" id="PageInitializer-to-ViewManager" style="stroke:#181818;stroke-width:1.0;"/><polygon fill="#181818" points="171.81,94.35,176.0421,103.2432,175.607,97.6031,181.2471,97.168,171.81,94.35" style="stroke:#181818;stroke-width:1.0;"/></g><!--link ViewManager to ProposalPresenter--><g id="link_ViewManager_ProposalPresenter"><path d="M136.57,94.35 C129.63,116.6 121.1157,143.9119 114.1857,166.1419 " fill="none" id="ViewManager-to-ProposalPresenter" style="stroke:#181818;stroke-width:1.0;"/><polygon fill="#181818" points="112.4,171.87,118.8973,164.4683,113.8881,167.0966,111.2598,162.0874,112.4,171.87" style="stroke:#181818;stroke-width:1.0;"/></g><!--link ProposalPresenter to THEMES--><g id="link_ProposalPresenter_THEMES"><path d="M148.89,221.47 C165.75,229.88 185.41,238.81 204,245.13 C277.54,270.12 300.41,259.48 375,281.13 C379.93,282.56 379.3527,282.2589 384.4127,283.9889 " fill="none" id="ProposalPresenter-to-THEMES" style="stroke:#181818;stroke-width:1.0;"/><polygon fill="#181818" points="390.09,285.93,382.868,279.2335,385.3589,284.3124,380.2799,286.8033,390.09,285.93" style="stroke:#181818;stroke-width:1.0;"/></g><!--SRC=[XL71Qi905BpdAnuMUjFI2XOy5AJkMg61O5eluk6PF7NhkWbljqrjwRztGvAYHEdUTdRcpRnPkrCcHyOzv9ZiS4EnEsW2fiIXsMWAx1_1RZ7D2cKsi4PjAGXg1NIUyK0C_I58pwCYuvs5QnYp-Y2s7RYIKWp40Bu3y6SnLrI4QBoIbnMoHsLwRnPk825DAqQdiXAedvL9wREtTNlj6Ozn37DaXIjDdl3JYd4tXAbnn6jC24Ofvgu98SVYlWdnodg2ZWeyr2OHPtbcKKTCbafzW_lHKwESGgs-IhJjU3k4SLRku5t4GFQbR5nUdaGeOfyw6ir6OLoFdFYIPkzD_ClRGxVxS2R0VuAZyIrnnJXU_WBbv9DERdMgTbrdi8fRjR3y1G00]--></g></svg>